{
    "asset" : {
        "generator" : "Khronos glTF Blender I/O v1.2.75",
        "version" : "2.0"
    },
    "scene" : 0,
    "scenes" : [
        {
            "name" : "Scene",
            "nodes" : [
                0,
                1
            ]
        }
    ],
    "nodes" : [
        {
            "mesh" : 0,
            "name" : "Plane",
            "rotation" : [
                -0.5,
                0.5,
                -0.4999999701976776,
                0.5
            ],
            "scale" : [
                0.15398138761520386,
                0.15398138761520386,
                0.15398138761520386
            ]
        },
        {
            "mesh" : 1,
            "name" : "Plane.001",
            "rotation" : [
                -0.5,
                0.5,
                -0.4999999701976776,
                0.5
            ],
            "scale" : [
                0.15398138761520386,
                0.15398138761520386,
                0.15398138761520386
            ]
        }
    ],
    "materials" : [
        {
            "doubleSided" : true,
            "emissiveFactor" : [
                0,
                0,
                0
            ],
            "name" : "Wavy Bacon",
            "pbrMetallicRoughness" : {
                "baseColorFactor" : [
                    0,
                    0,
                    0,
                    1
                ],
                "metallicFactor" : 0.781818151473999,
                "roughnessFactor" : 0.6654545068740845
            }
        }
    ],
    "meshes" : [
        {
            "name" : "Plane",
            "primitives" : [
                {
                    "attributes" : {
                        "POSITION" : 0,
                        "NORMAL" : 1,
                        "TANGENT" : 2,
                        "TEXCOORD_0" : 3
                    },
                    "indices" : 4,
                    "material" : 0
                }
            ]
        },
        {
            "name" : "Plane.001",
            "primitives" : [
                {
                    "attributes" : {
                        "POSITION" : 5,
                        "NORMAL" : 6,
                        "TANGENT" : 7,
                        "TEXCOORD_0" : 8
                    },
                    "indices" : 9,
                    "material" : 0
                }
            ]
        }
    ],
    "accessors" : [
        {
            "bufferView" : 0,
            "componentType" : 5126,
            "count" : 1429,
            "max" : [
                0.04385402053594589,
                -0.01224643737077713,
                1.6791057586669922
            ],
            "min" : [
                -12.203874588012695,
                -0.9746006727218628,
                -1.018765926361084
            ],
            "type" : "VEC3"
        },
        {
            "bufferView" : 1,
            "componentType" : 5126,
            "count" : 1429,
            "type" : "VEC3"
        },
        {
            "bufferView" : 2,
            "componentType" : 5126,
            "count" : 1429,
            "type" : "VEC4"
        },
        {
            "bufferView" : 3,
            "componentType" : 5126,
            "count" : 1429,
            "type" : "VEC2"
        },
        {
            "bufferView" : 4,
            "componentType" : 5123,
            "count" : 7488,
            "type" : "SCALAR"
        },
        {
            "bufferView" : 5,
            "componentType" : 5126,
            "count" : 5409,
            "max" : [
                0.04519883915781975,
                -0.012246436439454556,
                5.6681952476501465
            ],
            "min" : [
                -12.203874588012695,
                -0.9746006727218628,
                2.967930316925049
            ],
            "type" : "VEC3"
        },
        {
            "bufferView" : 6,
            "componentType" : 5126,
            "count" : 5409,
            "type" : "VEC3"
        },
        {
            "bufferView" : 7,
            "componentType" : 5126,
            "count" : 5409,
            "type" : "VEC4"
        },
        {
            "bufferView" : 8,
            "componentType" : 5126,
            "count" : 5409,
            "type" : "VEC2"
        },
        {
            "bufferView" : 9,
            "componentType" : 5123,
            "count" : 29952,
            "type" : "SCALAR"
        }
    ],
    "bufferViews" : [
        {
            "buffer" : 0,
            "byteLength" : 17148,
            "byteOffset" : 0
        },
        {
            "buffer" : 0,
            "byteLength" : 17148,
            "byteOffset" : 17148
        },
        {
            "buffer" : 0,
            "byteLength" : 22864,
            "byteOffset" : 34296
        },
        {
            "buffer" : 0,
            "byteLength" : 11432,
            "byteOffset" : 57160
        },
        {
            "buffer" : 0,
            "byteLength" : 14976,
            "byteOffset" : 68592
        },
        {
            "buffer" : 0,
            "byteLength" : 64908,
            "byteOffset" : 83568
        },
        {
            "buffer" : 0,
            "byteLength" : 64908,
            "byteOffset" : 148476
        },
        {
            "buffer" : 0,
            "byteLength" : 86544,
            "byteOffset" : 213384
        },
        {
            "buffer" : 0,
            "byteLength" : 43272,
            "byteOffset" : 299928
        },
        {
            "buffer" : 0,
            "byteLength" : 59904,
            "byteOffset" : 343200
        }
    ],
    "buffers" : [
        {
            "byteLength" : 403104,
            "uri" : "data:application/octet-stream;base64,"
        }
    ]
}
